<mxfile host="app.diagrams.net" modified="2020-09-25T03:41:55.679Z" agent="5.0 (Windows NT 10.0; WOW64) AppleWebKit/537.36 (KHTML, like Gecko) Chrome/72.0.3626.121 Safari/537.36" etag="BpWzQah31mDD4RjaQpMO" version="13.7.4" type="github">
  <diagram id="I4JyueW5JCcSsftDaGxW" name="第 1 页">
    <mxGraphModel dx="1422" dy="762" grid="1" gridSize="10" guides="1" tooltips="1" connect="1" arrows="1" fold="1" page="1" pageScale="1" pageWidth="827" pageHeight="1169" math="0" shadow="0">
      <root>
        <mxCell id="0" />
        <mxCell id="1" parent="0" />
        <mxCell id="Rhs9mmDFoT_GvzDfz118-1" value="接入中台" style="rounded=0;whiteSpace=wrap;html=1;fillColor=#fff2cc;strokeColor=#d6b656;" vertex="1" parent="1">
          <mxGeometry x="150" y="207.8313253012048" width="900.0000000000001" height="34.69879518072289" as="geometry" />
        </mxCell>
        <mxCell id="Rhs9mmDFoT_GvzDfz118-2" value="通用网关" style="rounded=0;whiteSpace=wrap;html=1;" vertex="1" parent="1">
          <mxGeometry x="150" y="150" width="154.2857142857143" height="34.69879518072289" as="geometry" />
        </mxCell>
        <mxCell id="Rhs9mmDFoT_GvzDfz118-3" value="健康卡网关" style="rounded=0;whiteSpace=wrap;html=1;" vertex="1" parent="1">
          <mxGeometry x="355.7142857142857" y="150" width="154.2857142857143" height="34.69879518072289" as="geometry" />
        </mxCell>
        <mxCell id="Rhs9mmDFoT_GvzDfz118-4" value="适配平台" style="rounded=0;whiteSpace=wrap;html=1;" vertex="1" parent="1">
          <mxGeometry x="895.7142857142858" y="150" width="154.2857142857143" height="34.69879518072289" as="geometry" />
        </mxCell>
        <mxCell id="Rhs9mmDFoT_GvzDfz118-13" value="开放平台" style="rounded=0;whiteSpace=wrap;html=1;" vertex="1" parent="1">
          <mxGeometry x="664.2857142857143" y="150" width="154.2857142857143" height="34.69879518072289" as="geometry" />
        </mxCell>
        <mxCell id="Rhs9mmDFoT_GvzDfz118-22" value="" style="group;fillColor=#d5e8d4;strokeColor=#82b366;" vertex="1" connectable="0" parent="1">
          <mxGeometry x="150" y="288.7951807228916" width="360" height="150.36144578313252" as="geometry" />
        </mxCell>
        <mxCell id="Rhs9mmDFoT_GvzDfz118-12" value="" style="rounded=0;whiteSpace=wrap;html=1;fillColor=#d5e8d4;strokeColor=#82b366;" vertex="1" parent="Rhs9mmDFoT_GvzDfz118-22">
          <mxGeometry width="360" height="150.36144578313252" as="geometry" />
        </mxCell>
        <mxCell id="Rhs9mmDFoT_GvzDfz118-5" value="健康档案" style="rounded=0;whiteSpace=wrap;html=1;fillColor=#d5e8d4;strokeColor=#82b366;" vertex="1" parent="Rhs9mmDFoT_GvzDfz118-22">
          <mxGeometry x="11.612903225806463" y="23.13253012048193" width="97.77315296566077" height="46.265060240963855" as="geometry" />
        </mxCell>
        <mxCell id="Rhs9mmDFoT_GvzDfz118-6" value="孕妇管理" style="rounded=0;whiteSpace=wrap;html=1;fillColor=#d5e8d4;strokeColor=#82b366;" vertex="1" parent="Rhs9mmDFoT_GvzDfz118-22">
          <mxGeometry x="11.612903225806463" y="80.96385542168674" width="97.77315296566077" height="46.265060240963855" as="geometry" />
        </mxCell>
        <mxCell id="Rhs9mmDFoT_GvzDfz118-7" value="儿童健康管理" style="rounded=0;whiteSpace=wrap;html=1;fillColor=#d5e8d4;strokeColor=#82b366;" vertex="1" parent="Rhs9mmDFoT_GvzDfz118-22">
          <mxGeometry x="131.11342351716962" y="80.96385542168674" width="97.77315296566077" height="46.265060240963855" as="geometry" />
        </mxCell>
        <mxCell id="Rhs9mmDFoT_GvzDfz118-8" value="慢病管理" style="rounded=0;whiteSpace=wrap;html=1;fillColor=#d5e8d4;strokeColor=#82b366;" vertex="1" parent="Rhs9mmDFoT_GvzDfz118-22">
          <mxGeometry x="131.11342351716962" y="23.13253012048193" width="97.77315296566077" height="46.265060240963855" as="geometry" />
        </mxCell>
        <mxCell id="Rhs9mmDFoT_GvzDfz118-9" value="接种预约" style="rounded=0;whiteSpace=wrap;html=1;fillColor=#d5e8d4;strokeColor=#82b366;" vertex="1" parent="Rhs9mmDFoT_GvzDfz118-22">
          <mxGeometry x="250.61394380853275" y="23.13253012048193" width="97.77315296566077" height="46.265060240963855" as="geometry" />
        </mxCell>
        <mxCell id="Rhs9mmDFoT_GvzDfz118-10" value="健康券" style="rounded=0;whiteSpace=wrap;html=1;fillColor=#d5e8d4;strokeColor=#82b366;" vertex="1" parent="Rhs9mmDFoT_GvzDfz118-22">
          <mxGeometry x="250.61394380853275" y="80.96385542168674" width="97.77315296566077" height="46.265060240963855" as="geometry" />
        </mxCell>
        <mxCell id="Rhs9mmDFoT_GvzDfz118-24" value="" style="group;fillColor=#dae8fc;strokeColor=#6c8ebf;" vertex="1" connectable="0" parent="1">
          <mxGeometry x="664.2857142857143" y="288.7951807228916" width="385.7142857142857" height="150.36144578313252" as="geometry" />
        </mxCell>
        <mxCell id="Rhs9mmDFoT_GvzDfz118-23" value="" style="group;fillColor=#dae8fc;strokeColor=#6c8ebf;" vertex="1" connectable="0" parent="Rhs9mmDFoT_GvzDfz118-24">
          <mxGeometry width="385.7142857142857" height="150.36144578313252" as="geometry" />
        </mxCell>
        <mxCell id="Rhs9mmDFoT_GvzDfz118-14" value="" style="rounded=0;whiteSpace=wrap;html=1;fillColor=#dae8fc;strokeColor=#6c8ebf;" vertex="1" parent="Rhs9mmDFoT_GvzDfz118-23">
          <mxGeometry width="385.7142857142857" height="150.36144578313252" as="geometry" />
        </mxCell>
        <mxCell id="Rhs9mmDFoT_GvzDfz118-21" value="健康券模块&lt;br&gt;moduleId=5" style="rounded=0;whiteSpace=wrap;html=1;fillColor=#dae8fc;strokeColor=#6c8ebf;" vertex="1" parent="Rhs9mmDFoT_GvzDfz118-23">
          <mxGeometry x="140.4826817303404" y="80.96385542168674" width="104.7569496060651" height="46.265060240963855" as="geometry" />
        </mxCell>
        <mxCell id="Rhs9mmDFoT_GvzDfz118-16" value="公共信息模块&lt;br&gt;moduleId=1" style="rounded=0;whiteSpace=wrap;html=1;fillColor=#dae8fc;strokeColor=#6c8ebf;" vertex="1" parent="Rhs9mmDFoT_GvzDfz118-23">
          <mxGeometry x="12.442396313364043" y="23.13253012048193" width="104.7569496060651" height="46.265060240963855" as="geometry" />
        </mxCell>
        <mxCell id="Rhs9mmDFoT_GvzDfz118-17" value="健康数据模块&lt;br&gt;moduleId=4" style="rounded=0;whiteSpace=wrap;html=1;fillColor=#dae8fc;strokeColor=#6c8ebf;" vertex="1" parent="Rhs9mmDFoT_GvzDfz118-23">
          <mxGeometry x="12.442396313364043" y="80.96385542168674" width="104.7569496060651" height="46.265060240963855" as="geometry" />
        </mxCell>
        <mxCell id="Rhs9mmDFoT_GvzDfz118-18" value="任务模块&lt;br&gt;moduleId=6" style="rounded=0;whiteSpace=wrap;html=1;fillColor=#dae8fc;strokeColor=#6c8ebf;" vertex="1" parent="Rhs9mmDFoT_GvzDfz118-23">
          <mxGeometry x="268.51092611862646" y="80.96385542168674" width="104.7569496060651" height="46.265060240963855" as="geometry" />
        </mxCell>
        <mxCell id="Rhs9mmDFoT_GvzDfz118-19" value="个人信息模块&lt;br&gt;moduleId=2" style="rounded=0;whiteSpace=wrap;html=1;fillColor=#dae8fc;strokeColor=#6c8ebf;" vertex="1" parent="Rhs9mmDFoT_GvzDfz118-23">
          <mxGeometry x="140.4786680541103" y="23.13253012048193" width="104.7569496060651" height="46.265060240963855" as="geometry" />
        </mxCell>
        <mxCell id="Rhs9mmDFoT_GvzDfz118-20" value="报告模块&lt;br&gt;moduleId=3" style="rounded=0;whiteSpace=wrap;html=1;fillColor=#dae8fc;strokeColor=#6c8ebf;" vertex="1" parent="Rhs9mmDFoT_GvzDfz118-23">
          <mxGeometry x="268.51493979485656" y="23.13253012048193" width="104.7569496060651" height="46.265060240963855" as="geometry" />
        </mxCell>
        <mxCell id="Rhs9mmDFoT_GvzDfz118-25" value="TetherProxy&lt;br&gt;数据中台接入模块" style="rounded=0;whiteSpace=wrap;html=1;fillColor=#f8cecc;strokeColor=#b85450;" vertex="1" parent="1">
          <mxGeometry x="531" y="300" width="109.82" height="49.4" as="geometry" />
        </mxCell>
        <mxCell id="Rhs9mmDFoT_GvzDfz118-27" style="edgeStyle=orthogonalEdgeStyle;rounded=0;orthogonalLoop=1;jettySize=auto;html=1;exitX=1;exitY=0.5;exitDx=0;exitDy=0;strokeWidth=4;fillColor=#f8cecc;strokeColor=#b85450;" edge="1" parent="1" source="Rhs9mmDFoT_GvzDfz118-12" target="Rhs9mmDFoT_GvzDfz118-14">
          <mxGeometry relative="1" as="geometry" />
        </mxCell>
        <mxCell id="Rhs9mmDFoT_GvzDfz118-28" value="moduleId + interfaceKey" style="text;html=1;align=center;verticalAlign=middle;whiteSpace=wrap;rounded=0;" vertex="1" parent="1">
          <mxGeometry x="495.91" y="370" width="180" height="20" as="geometry" />
        </mxCell>
        <mxCell id="Rhs9mmDFoT_GvzDfz118-29" value="模块接入配置" style="rounded=0;whiteSpace=wrap;html=1;" vertex="1" parent="1">
          <mxGeometry x="541.45" y="399.16" width="88.92" height="40" as="geometry" />
        </mxCell>
        <mxCell id="Rhs9mmDFoT_GvzDfz118-30" value="" style="endArrow=classic;html=1;strokeWidth=4;fontColor=#000000;" edge="1" parent="1">
          <mxGeometry width="50" height="50" relative="1" as="geometry">
            <mxPoint x="329.5" y="248.8" as="sourcePoint" />
            <mxPoint x="329.5" y="288.8" as="targetPoint" />
          </mxGeometry>
        </mxCell>
        <mxCell id="Rhs9mmDFoT_GvzDfz118-32" value="" style="endArrow=classic;html=1;strokeWidth=4;fontColor=#000000;" edge="1" parent="1">
          <mxGeometry width="50" height="50" relative="1" as="geometry">
            <mxPoint x="860" y="287.8" as="sourcePoint" />
            <mxPoint x="860.25" y="247.8" as="targetPoint" />
          </mxGeometry>
        </mxCell>
      </root>
    </mxGraphModel>
  </diagram>
</mxfile>
